<svg width="32" height="32" viewBox="0 0 32 32" fill="none" xmlns="http://www.w3.org/2000/svg">
<path fill-rule="evenodd" clip-rule="evenodd" d="M11.5334 2.66969C12.1329 2.71027 12.6313 3.14687 12.7503 3.73588L16.6355 22.9618L21.018 10.3735C21.1989 9.85394 21.6803 9.49882 22.2302 9.47939C22.78 9.45996 23.2853 9.78021 23.5024 10.2857L26.1002 16.3342H30.6667C31.403 16.3342 32 16.9312 32 17.6676C32 18.4039 31.403 19.0009 30.6667 19.0009H25.2217C24.6887 19.0009 24.2069 18.6835 23.9966 18.1937L22.4074 14.4935L17.5526 28.4384C17.355 29.0058 16.8024 29.371 16.203 29.3302C15.6036 29.2895 15.1054 28.853 14.9864 28.2641L11.1021 9.04254L7.95173 18.1053C7.76535 18.6415 7.25995 19.0009 6.69232 19.0009L1.33333 19.0009C0.596953 19.0009 -3.17891e-07 18.4039 0 17.6676C3.97364e-07 16.9312 0.596954 16.3342 1.33333 16.3342L5.74421 16.3342L10.184 3.56219C10.3813 2.9946 10.9339 2.62912 11.5334 2.66969Z" fill="white"/>
</svg>
