<svg width="32" height="32" viewBox="0 0 32 32" fill="none" xmlns="http://www.w3.org/2000/svg">
<path fill-rule="evenodd" clip-rule="evenodd" d="M10.6665 5.33335C10.6665 3.8606 11.8604 2.66669 13.3332 2.66669H18.6665C20.1393 2.66669 21.3332 3.86059 21.3332 5.33335V10.6667H26.6665C28.1393 10.6667 29.3332 11.8606 29.3332 13.3334V26.6667C29.3332 28.1394 28.1393 29.3334 26.6665 29.3334H5.33317C3.86041 29.3334 2.6665 28.1394 2.6665 26.6667V18.6667C2.6665 17.1939 3.86041 16 5.33317 16H10.6665V5.33335ZM18.6665 26.6667V5.33335L13.3332 5.33335V26.6667H18.6665ZM21.3332 13.3334V26.6667H26.6665V13.3334H21.3332ZM5.33317 18.6667H10.6665V26.6667H5.33317V18.6667Z" fill="white"/>
</svg>
