<svg width="32" height="32" viewBox="0 0 32 32" fill="none" xmlns="http://www.w3.org/2000/svg">
<path d="M2.6665 5.33329C2.6665 3.86053 3.86041 2.66663 5.33317 2.66663H14.6665C16.1393 2.66663 17.3332 3.86053 17.3332 5.33329V7.99996C17.3332 8.73634 16.7362 9.33329 15.9998 9.33329C15.2635 9.33329 14.6665 8.73634 14.6665 7.99996V5.33329L5.33317 5.33329V26.6666H14.6665V24C14.6665 23.2636 15.2635 22.6666 15.9998 22.6666C16.7362 22.6666 17.3332 23.2636 17.3332 24V26.6666C17.3332 28.1394 16.1393 29.3333 14.6665 29.3333H5.33317C3.86041 29.3333 2.6665 28.1394 2.6665 26.6666V5.33329Z" fill="white"/>
<path d="M24.7809 17.3333L21.7237 20.3905C21.203 20.9112 21.203 21.7554 21.7237 22.2761C22.2444 22.7968 23.0886 22.7968 23.6093 22.2761L28.7541 17.1313C29.3789 16.5065 29.3789 15.4934 28.7541 14.8686L23.6093 9.72382C23.0886 9.20312 22.2444 9.20312 21.7237 9.72382C21.203 10.2445 21.203 11.0887 21.7237 11.6094L24.7809 14.6666L10.6665 14.6666V17.3333L24.7809 17.3333Z" fill="white"/>
</svg>
