<svg width="32" height="32" viewBox="0 0 32 32" fill="none" xmlns="http://www.w3.org/2000/svg">
<path fill-rule="evenodd" clip-rule="evenodd" d="M15.9998 13.3334C18.9454 13.3334 21.3332 10.9455 21.3332 8.00002C21.3332 5.0545 18.9454 2.66669 15.9998 2.66669C13.0543 2.66669 10.6665 5.0545 10.6665 8.00002C10.6665 10.9455 13.0543 13.3334 15.9998 13.3334ZM15.9998 10.6667C17.4726 10.6667 18.6665 9.47278 18.6665 8.00002C18.6665 6.52726 17.4726 5.33335 15.9998 5.33335C14.5271 5.33335 13.3332 6.52726 13.3332 8.00002C13.3332 9.47278 14.5271 10.6667 15.9998 10.6667Z" fill="white"/>
<path d="M5.80042 20.5798C7.60684 17.9427 10.8276 16 16.0004 16C17.6354 16 19.0819 16.1931 20.3568 16.5477C21.0663 16.745 21.4815 17.4801 21.2842 18.1895C21.0868 18.899 20.3518 19.3141 19.6423 19.1168C18.6291 18.835 17.426 18.6667 16.0004 18.6667C11.5733 18.6667 9.23845 20.2795 8.00043 22.0869C7.00336 23.5424 6.63049 25.2527 6.60028 26.6667H18.6662C19.4026 26.6667 19.9996 27.2636 19.9996 28C19.9996 28.7364 19.4026 29.3334 18.6662 29.3334H5.33376C4.66132 29.3334 4.09412 28.8326 4.01072 28.1654C3.75911 26.1525 4.04942 23.136 5.80042 20.5798Z" fill="white"/>
<path d="M25.3332 29.3334C24.5968 29.3334 23.9998 28.7364 23.9998 28V25.3334H21.3332C20.5968 25.3334 19.9998 24.7364 19.9998 24C19.9998 23.2636 20.5968 22.6667 21.3332 22.6667H23.9998V20C23.9998 19.2636 24.5968 18.6667 25.3332 18.6667C26.0695 18.6667 26.6665 19.2636 26.6665 20V22.6667H29.3332C30.0695 22.6667 30.6665 23.2636 30.6665 24C30.6665 24.7364 30.0695 25.3334 29.3332 25.3334H26.6665V28C26.6665 28.7364 26.0695 29.3334 25.3332 29.3334Z" fill="white"/>
</svg>
